<?xml version="1.0" encoding="utf-8"?>
<!-- Generator: Adobe Illustrator 23.0.5, SVG Export Plug-In . SVG Version: 6.00 Build 0)  -->
<svg version="1.1" id="Capa_1" xmlns="http://www.w3.org/2000/svg" xmlns:xlink="http://www.w3.org/1999/xlink" x="0px" y="0px"
	 viewBox="0 0 458 173" style="enable-background:new 0 0 458 173;" xml:space="preserve">
<style type="text/css">
	.st0{fill:#FFFFFF;}
	.st1{fill:#FFFFFF;stroke:#000000;stroke-width:0;stroke-linecap:round;stroke-linejoin:round;}
</style>
<g>
	<g>
		<polygon class="st0" points="59.7,125.7 59.7,125.7 59.7,125.7 		"/>
		<polygon points="59.7,125.7 59.7,125.7 59.7,125.7 		"/>
	</g>
	<path class="st0" d="M56.6,78.8c12.9,22.3,25.2,45.2,36.7,68.2l0.6,1.2l-1.3,0.3c-3.2,0.8-6.5,1.5-9.7,2.3c0.9,2,1.9,3.9,2.8,5.9
		c4.2-1.1,9.5-2.1,13.7-3.1c-12.7-25.4-26.3-50.4-40.8-75C58.3,78.7,56.9,78.8,56.6,78.8z"/>
	<g>
		<path class="st0" d="M63.7,123.6c-1.1-2.3-2.3-4.6-3.7-7.3c0.2,2.7,0.4,5.4,0.6,8.1C61.6,124.2,62.7,123.9,63.7,123.6z"/>
		<path class="st0" d="M54.8,106.2c0.4,6.4,0.8,12.9,1.3,19.5c0.8-0.2,1.7-0.5,2.5-0.7c-0.3-4.4-0.6-8.8-0.9-13.1
			C56.8,110,55.8,108.1,54.8,106.2z"/>
	</g>
	<path class="st0" d="M71.8,137.7c-5.1,1.3-10.3,2.8-15.4,4.3c0.4,5,0.9,9.9,1.3,14.8l0.1,0.9l-0.9,0.3c-2.4,0.7-4.8,1.5-7.2,2.2
		c0.2,2.3,0.3,4.6,0.5,6.9c4.2-1.3,8.3-2.7,12.5-3.9c-0.5-5.2-1-10.5-1.4-15.7c4.4-1.3,8.9-2.6,13.3-3.8
		C73.7,141.7,72.8,139.7,71.8,137.7z"/>
	<path class="st0" d="M122.6,141.5l0,0.9l-0.9,0.2c-3.3,0.6-6.5,1.2-9.8,1.8c0.8,1.9,1.6,3.8,2.4,5.7c4.4-0.9,8.8-1.8,13.2-2.5
		c0.4-28.1,1.6-56.3,3.5-84.5c-1.8,0.3-3.5,0.6-5.3,0.8C124.1,89.7,123,115.8,122.6,141.5z"/>
	<path class="st0" d="M108.3,104.6c-4.5-11.7-9.1-23.3-13.8-34.9c-0.7,0.1-1.4,0.3-2.1,0.5c5.5,13.7,10.9,27.5,16,41.4
		C108.4,109.2,108.3,106.9,108.3,104.6z"/>
	<path class="st0" d="M190.8,76c-0.3-4.2-1.4-7.8-3.5-10.7c-0.9-1.2-1.9-2.2-3-3.1c1,2.3,1.6,4.8,1.7,7.7l2.8,44.1
		c0.3,4.4-0.4,8.3-2,11.6c-1.6,3.3-4,5.9-7.2,7.9c-3.2,1.9-7,3.1-11.7,3.6c-1.3,0.1-2.5,0.2-3.7,0.2c-3.1,0-5.9-0.5-8.5-1.4
		c-0.6-0.2-1.1-0.4-1.6-0.7c2.1,2.6,4.7,4.5,8,5.7c3.3,1.2,7.2,1.6,11.6,1.1s8.2-1.6,11.2-3.4c3-1.8,5.3-4.3,6.8-7.4
		c1.5-3.1,2.1-6.8,1.8-11C192.7,105.4,191.8,90.7,190.8,76z"/>
	<path class="st0" d="M168.5,67.8c-0.7-1-1.7-1.7-2.9-2.2c-1-0.3-2.1-0.5-3.3-0.5c-0.5,0-0.9,0-1.4,0.1c-1.8,0.2-3.3,0.6-4.5,1.4
		c-1.1,0.7-2,1.6-2.4,2.7c-0.5,1.2-0.7,2.5-0.5,4.1l4.9,42.6c0.2,1.6,0.6,2.9,1.3,3.9c0.7,1,1.5,1.7,2.6,2.1c0.3,0,0.6,0,0.9,0.1
		c-1.6-14.2-3.3-28.4-4.9-42.5c-0.2-1.8,0-3.3,0.6-4.7c0.6-1.3,1.5-2.4,2.9-3.2c1.3-0.8,3-1.3,5-1.5c0.9-0.1,1.7-0.1,2.5,0
		c0-0.1,0-0.3,0-0.4c0-0.4-0.1-0.8-0.2-1.2C168.8,68.3,168.7,68,168.5,67.8z"/>
	<path class="st0" d="M247.1,76.1l-1.1,0c-2.7-0.1-5.5-0.1-8.2-0.2c0,1.6,0,3.2,0,4.9c4.7,0,9.4,0.1,14,0.3c0-1.7,0.1-3.4,0.2-5.1
		c0.1-4.4-0.6-8.3-2.3-11.5c-1.1-2.1-2.5-3.8-4.2-5.3c1.3,3.1,1.9,6.7,1.8,10.7L247.1,76.1z"/>
	<path class="st0" d="M230.5,66.5c0-0.1,0-0.1,0-0.2c-0.1-0.3-0.2-0.6-0.3-0.9c-0.5-1.1-1.2-1.9-2.2-2.5c-1-0.6-2.2-0.9-3.7-0.9h0
		c-1.4,0-2.7,0.3-3.6,0.9c-1,0.6-1.7,1.4-2.2,2.5c-0.6,1.2-0.8,2.6-0.8,4.3l0.7,42.2c0,1.7,0.3,3.1,0.9,4.3c0.5,1.1,1.2,1.9,2.1,2.5
		c0.1,0.1,0.2,0.1,0.3,0.1c0.5,0.1,1,0.1,1.5,0.1h0c0,0,0,0,0,0c0-0.3,0-0.6-0.1-0.9c-0.2-14-0.5-28.1-0.7-42.2
		c0-1.9,0.3-3.4,0.9-4.8c0.6-1.3,1.5-2.3,2.7-3c1.1-0.7,2.5-1,4.2-1.1c0.2,0,0.3,0,0.5,0c0,0,0,0,0,0
		C230.5,66.8,230.5,66.6,230.5,66.5z"/>
	<path class="st0" d="M243.2,123.9c-1.7,3.3-4.2,5.9-7.5,7.6c-3.1,1.7-6.9,2.5-11.3,2.5h-0.1c-3.9,0-7.3-0.7-10.3-2.1
		c1.5,1.9,3.3,3.5,5.5,4.6c3,1.6,6.6,2.4,10.7,2.4c4.1,0,7.7-0.8,10.7-2.4s5.3-4,7-7.1c1.6-3.2,2.6-6.9,2.7-11.4
		c0-1.7,0.1-3.4,0.1-5.1c-1.6,0-3.3-0.1-4.9-0.1C245.7,117.1,244.8,120.8,243.2,123.9z"/>
	<g>
		<path class="st0" d="M283.9,99.9c-0.5,1.6-1,3.3-1.4,4.9c0.7,0.1,1.3,0.1,2,0.2C284.2,103.3,284.1,101.7,283.9,99.9z"/>
		<path class="st0" d="M282,84.4c-1.9,6.5-3.9,13.1-5.8,19.8c1.4,0.1,2.8,0.2,4.2,0.4c0.9-3.3,1.9-6.5,2.9-9.8
			C282.9,91.7,282.5,88.1,282,84.4z"/>
	</g>
	<path class="st0" d="M292.6,58c4.4,26.1,8.1,52.6,10.9,78.7l0.1,1.4l-1.4-0.2c-2.5-0.3-5-0.6-7.5-0.9c0.1,1.5,0.3,2.9,0.4,4.3
		c4.3,0.5,8.6,1,12.9,1.5c-3-28.2-7-56.4-11.9-84.6C295.1,58.2,293.9,58.1,292.6,58z"/>
	<path class="st0" d="M271,119.3c-1.3,4.8-2.6,9.6-3.9,14.4l-0.2,0.9l-0.9-0.1c-1.9-0.1-3.9-0.2-5.8-0.3c-0.4,1.5-0.9,3-1.3,4.6
		c4.3,0.2,8.7,0.4,13,0.7c1.3-5.1,2.7-10.1,4.1-15.2c3.9,0.3,7.7,0.6,11.6,0.9c-0.1-1.5-0.3-3-0.4-4.4
		C281.7,120.1,276.3,119.7,271,119.3z"/>
	<path class="st0" d="M372.8,78.4c-0.9-2.6-2.5-4.8-4.8-6.7c0,0.1,0.1,0.2,0.1,0.3c1.1,3.1,1.2,6.7,0.4,10.6l-10,45.8
		c-0.8,3.8-2.3,7-4.5,9.5c-2.2,2.5-4.9,4.2-8,5c-1.7,0.5-3.5,0.7-5.5,0.7c-1.6,0-3.4-0.2-5.2-0.5c-3.9-0.7-7.9-1.4-11.9-2.1
		c-1.1-0.2-2.2-0.3-3.3-0.5c-0.2,1.3-0.4,2.6-0.6,4c3.4,0.5,6.8,1,10.1,1.6c3.8,0.6,7.6,1.3,11.4,2c3.8,0.7,7.2,0.7,10.2-0.2
		s5.5-2.4,7.5-4.7c2-2.3,3.5-5.3,4.3-9c3.3-15.3,6.7-30.5,10-45.8C373.9,84.7,373.8,81.4,372.8,78.4z"/>
	<path class="st0" d="M344.1,76.6c2.8,0.5,5.6,1,8.4,1.5c0-1-0.3-1.9-0.8-2.6c-0.8-1.1-2.1-1.9-4-2.2c-2.8-0.5-5.6-1-8.4-1.5
		l-9.4,55.7c1.8,0.3,3.6,0.6,5.4,1C338.2,111.2,341.2,93.9,344.1,76.6z"/>
	<path class="st0" d="M435.9,95.4c-0.8-3.2-2.6-6-5.2-8.5c0.3,0.7,0.5,1.3,0.7,2c1,3.6,0.7,7.6-0.6,11.9l-13.6,42
		c-1.4,4.2-3.4,7.6-6.1,10c-2.7,2.5-5.9,4-9.7,4.7c-1.2,0.2-2.5,0.3-3.7,0.3c-2.6,0-5.5-0.4-8.5-1.3c-2.7-0.8-5-1.7-7.1-2.9
		c0.7,0.9,1.5,1.8,2.4,2.6c2.7,2.4,6.2,4.1,10.5,5.4c4.3,1.2,8.2,1.6,11.8,1c3.5-0.6,6.6-2,9.1-4.4c2.5-2.3,4.5-5.5,5.8-9.5l13.6-42
		C436.6,102.7,436.8,98.9,435.9,95.4z"/>
	<path class="st0" d="M403.4,97.9c0.5-1.7,1.2-3.1,2.3-4.1c1-1,2.3-1.7,3.9-1.9s3.3-0.1,5.2,0.4c0.1,0,0.2,0.1,0.3,0.1
		c-0.3-1.2-0.9-2.2-1.9-3c-1.1-0.9-2.5-1.7-4.3-2.2c-1.2-0.3-2.3-0.5-3.4-0.5c-0.5,0-0.9,0-1.4,0.1c-1.3,0.2-2.4,0.8-3.3,1.6
		c-0.9,0.9-1.6,2.1-2,3.6l-11.1,41.4c-0.4,1.5-0.5,2.9-0.2,4.2c0.3,1.2,0.9,2.2,1.8,3.1c0.6,0.5,1.3,1,2.1,1.4
		c0.1,0,0.2,0.1,0.2,0.1c0.1,0,0.1,0,0.2,0.1c0-0.9,0.1-1.9,0.4-2.9C395.9,125.4,399.6,111.7,403.4,97.9z"/>
	<polygon class="st0" points="154.4,22.2 160.9,22.2 160.9,34.5 164.2,34.5 164.2,6.3 160.9,6.3 160.9,19.1 154.4,19.1 154.4,6.3 
		151.1,6.3 151.1,34.5 154.4,34.5 	"/>
	<path class="st0" d="M176.1,34c1,0.6,2.3,0.8,3.8,0.8s2.7-0.3,3.8-0.8c1.1-0.6,1.9-1.4,2.4-2.4s0.8-2.4,0.8-3.9V13.1
		c0-1.5-0.3-2.8-0.8-3.9s-1.4-1.9-2.4-2.4S181.3,6,179.8,6s-2.7,0.3-3.8,0.8s-1.9,1.4-2.4,2.4s-0.8,2.4-0.8,3.9v14.6
		c0,1.5,0.3,2.8,0.8,3.9C174.2,32.6,175,33.4,176.1,34z M176.1,13c0-0.8,0.1-1.5,0.4-2.1c0.3-0.6,0.7-1,1.3-1.3s1.2-0.5,2-0.5
		s1.5,0.2,2,0.5s1,0.7,1.3,1.3s0.5,1.3,0.5,2.1v14.9c0,0.8-0.2,1.5-0.5,2.1s-0.7,1-1.3,1.3s-1.2,0.5-2,0.5s-1.5-0.2-2-0.5
		s-1-0.7-1.3-1.3s-0.4-1.3-0.4-2.1V13z"/>
	<path class="st0" d="M205.3,34.1c1-0.5,1.7-1.2,2.2-2.2c0.5-1,0.7-2.2,0.7-3.7V6.3H205v22.1c0,1.1-0.3,1.9-0.8,2.5
		c-0.5,0.6-1.3,0.9-2.4,0.9c-1,0-1.8-0.3-2.4-0.9c-0.5-0.6-0.8-1.4-0.8-2.5V6.3h-3.3v21.9c0,1.5,0.2,2.7,0.7,3.7s1.2,1.7,2.2,2.2
		c1,0.5,2.1,0.8,3.5,0.8C203.2,34.8,204.3,34.6,205.3,34.1z"/>
	<path class="st0" d="M219.6,34.1c1,0.5,2.3,0.8,3.8,0.8c1.5,0,2.7-0.3,3.7-0.8s1.8-1.2,2.3-2.2c0.5-1,0.8-2.2,0.8-3.7V26
		c0-1.3-0.2-2.4-0.7-3.3c-0.5-0.9-1.1-1.6-1.8-2.1c-0.7-0.5-1.6-1-2.7-1.5c0,0-0.1,0-0.2-0.1c-0.1,0-0.1,0-0.2-0.1
		c-0.1,0-0.2-0.1-0.3-0.1c-0.1,0-0.2-0.1-0.3-0.1c-1-0.5-1.8-0.9-2.3-1.2c-0.6-0.3-1-0.8-1.4-1.3c-0.4-0.5-0.6-1.2-0.6-2v-1.6
		c0-1.1,0.3-2,0.9-2.5s1.5-0.9,2.7-0.9c1.1,0,2,0.3,2.6,0.9s0.9,1.5,0.9,2.7v1.4h3.2v-1.5c0-1.4-0.3-2.6-0.8-3.6
		c-0.5-1-1.3-1.7-2.2-2.2c-1-0.5-2.2-0.8-3.7-0.8c-1.5,0-2.8,0.3-3.8,0.7c-1,0.5-1.8,1.2-2.3,2.2c-0.5,1-0.8,2.2-0.8,3.6V14
		c0,1.4,0.3,2.5,0.8,3.4c0.5,0.9,1.2,1.6,2,2.1c0.8,0.5,1.8,1.1,3,1.7l0.3,0.1c0,0,0.1,0,0.1,0c0,0,0.1,0,0.1,0
		c0.9,0.4,1.7,0.8,2.3,1.2c0.6,0.4,1,0.8,1.4,1.4s0.5,1.2,0.5,2v2.1c0,1.2-0.3,2.1-0.9,2.7c-0.6,0.6-1.5,0.9-2.7,0.9
		c-1.2,0-2.1-0.3-2.7-0.9c-0.6-0.6-0.9-1.5-0.9-2.7v-1.3l-3.2,0v1.4c0,1.5,0.3,2.7,0.8,3.6C217.8,32.9,218.5,33.6,219.6,34.1z"/>
	<polygon class="st0" points="250.7,34.5 250.7,31.5 241.9,31.5 241.9,22 249.8,22 249.8,19 241.9,19 241.9,9.3 250.7,9.3 
		250.7,6.3 238.6,6.3 238.6,34.5 	"/>
	<path class="st0" d="M272.3,34c1,0.6,2.3,0.8,3.8,0.8c1.5,0,2.7-0.3,3.8-0.8s1.9-1.4,2.4-2.4s0.8-2.4,0.8-3.9V13.1
		c0-1.5-0.3-2.8-0.8-3.9s-1.4-1.9-2.4-2.4S277.5,6,276.1,6c-1.5,0-2.7,0.3-3.8,0.8c-1,0.5-1.8,1.4-2.4,2.4s-0.8,2.4-0.8,3.9v14.6
		c0,1.5,0.3,2.8,0.8,3.9C270.4,32.6,271.2,33.4,272.3,34z M272.3,13c0-0.8,0.1-1.5,0.5-2.1c0.3-0.6,0.7-1,1.3-1.3s1.2-0.5,2-0.5
		c0.8,0,1.5,0.2,2,0.5s1,0.7,1.3,1.3c0.3,0.6,0.5,1.3,0.5,2.1v14.9c0,0.8-0.2,1.5-0.5,2.1s-0.7,1-1.3,1.3s-1.2,0.5-2,0.5
		c-0.8,0-1.5-0.2-2-0.5s-1-0.7-1.3-1.3s-0.5-1.3-0.5-2.1V13z"/>
	<polygon class="st0" points="295,22.3 302.9,22.3 302.9,19.2 295,19.2 295,9.3 303.9,9.3 303.9,6.3 291.7,6.3 291.7,34.5 295,34.5 
			"/>
	<path class="st1" d="M7.5,134.9c0.1-0.1,0.1-0.3,0.2-0.4"/>
	<path class="st0" d="M10.3,131.4l-0.2,0.1c-0.1,0.1-0.2,0.2-0.3,0.3c0,0,0,0,0,0c0.2-0.2,0.5-0.4,0.7-0.5
		C10.4,131.3,10.4,131.4,10.3,131.4z"/>
	<path class="st0" d="M15.4,145.7c6.7-0.4,9.7-9,4.8-13.5c-2.5-2.5-6.5-2.8-9.4-1.1c-0.1,0.1-0.2,0.1-0.3,0.2
		c-0.2,0.2-0.5,0.3-0.7,0.5c0,0-0.1,0.1-0.1,0.1c-0.3,0.2-0.5,0.4-0.7,0.7c-0.2,0.3-0.4,0.5-0.6,0.8c-0.1,0.1-0.2,0.3-0.2,0.4
		c-0.1,0.2-0.3,0.5-0.4,0.7c-0.1,0.1-0.1,0.3-0.2,0.4c-0.1,0.2-0.2,0.4-0.2,0.6c0,0.1-0.1,0.3-0.1,0.4C6,140.8,9.8,146.2,15.4,145.7
		z M8.4,133.4c0.2-0.3,0.4-0.5,0.6-0.8C8.7,132.9,8.5,133.1,8.4,133.4z"/>
	<path class="st0" d="M9,132.6c-0.2,0.3-0.4,0.5-0.6,0.8C8.5,133.1,8.7,132.9,9,132.6z"/>
	<path class="st0" d="M23.5,137.5c0.5,4.6-3.4,8.9-8,9c-2.3,0.1-4.2-0.7-5.7-2c1.3,2.6,4.1,4.5,7.2,4.5c4.5,0,8.1-3.6,8.1-8.1
		c0-2-0.7-3.8-2-5.3C23.3,136.2,23.5,136.9,23.5,137.5z"/>
	<path class="st0" d="M441.2,145.7c4.1-0.2,7.5-3.8,7.4-7.9c0-5.7-5.8-9-10.5-7.3c0,0-0.1,0-0.1,0c-0.3,0.1-0.5,0.2-0.8,0.4
		c-0.2,0.1-0.3,0.2-0.5,0.3c-0.1,0.1-0.2,0.1-0.3,0.2c-0.2,0.1-0.4,0.3-0.6,0.5c-0.3,0.2-0.5,0.4-0.8,0.7c-0.2,0.2-0.4,0.5-0.6,0.7
		c0,0,0,0,0,0c0,0,0,0,0,0c0,0,0,0,0,0.1c-0.2,0.2-0.3,0.5-0.4,0.7c-0.1,0.1-0.1,0.3-0.2,0.4c-0.1,0.1-0.1,0.3-0.2,0.4
		c-0.1,0.2-0.2,0.4-0.2,0.6c0,0.1-0.1,0.3-0.1,0.4C431.9,140.6,435.6,146.1,441.2,145.7z"/>
	<path class="st0" d="M435,132.5c-0.1,0.1-0.2,0.3-0.3,0.4c0,0-0.1,0.1-0.1,0.1c0,0.1-0.1,0.1-0.1,0.2c0,0,0,0,0,0
		C434.6,133,434.8,132.7,435,132.5z"/>
	<path class="st0" d="M449.4,137.7c0.4,4.6-3.6,8.9-8.2,8.8c-2.2,0-4.1-0.8-5.5-2c1.3,2.6,4,4.5,7.2,4.5c4.5,0,8.1-3.6,8.1-8.1
		c0-2-0.7-3.8-2-5.3C449.3,136.3,449.4,137,449.4,137.7z"/>
	<path class="st0" d="M50.9,73.7c-0.4-0.7-0.8-1.3-1.1-2c-0.2-0.4-0.4-0.8-0.7-1.2c-3.7,1-7.5,2.1-11.2,3.1
		c0.4,28.8,1.6,57.5,3.9,85.9c0.4-0.1,0.7-0.2,1.1-0.3c0.7-0.2,1.4-0.5,2.1-0.7c3.1-1,6.2-2,9.4-2.9c-0.4-4.3-0.8-8.5-1.2-12.8
		c-0.1-0.8-0.1-1.5-0.2-2.2c0-0.3,0-0.5-0.1-0.8c0.4-0.1,0.7-0.2,1.1-0.3c0.7-0.2,1.4-0.4,2.1-0.6c4.8-1.4,9.5-2.7,14.3-4
		c0.1,0.3,0.2,0.5,0.4,0.7c0.3,0.7,0.6,1.3,1,2c1,2,1.9,3.9,2.9,5.9c0.9,1.9,1.8,3.8,2.7,5.6c0.1,0,0.2,0,0.3-0.1
		c0.7-0.2,1.4-0.3,2.2-0.5c3.4-0.9,6.9-1.7,10.3-2.5C77.9,121.7,64.8,97.5,50.9,73.7z M59.7,125.7C59.7,125.7,59.7,125.7,59.7,125.7
		c-1.5,0.4-3,0.8-4.5,1.3c-0.7,0.2-1.4,0.4-2.1,0.6c-0.4,0.1-0.7,0.2-1.1,0.3c-0.9-11.2-1.7-22.5-2.3-33.8c0.5,0.9,0.9,1.8,1.4,2.7
		c0.8,1.6,1.6,3.2,2.5,4.7c0,0,0,0,0,0c1.7,3.3,3.5,6.7,5.2,10c0,0,0,0,0,0c2.2,4.2,4.3,8.4,6.4,12.7
		C63.3,124.7,61.5,125.2,59.7,125.7z"/>
	<path class="st0" d="M122.9,58.5c0-0.8,0.1-1.5,0.1-2.2c0-0.4,0.1-0.8,0.1-1.2c-5,0.8-10.1,1.6-15.1,2.5c-0.1,15.7,0,31.4,0.3,47.1
		c0,2.3,0.1,4.6,0.2,7c0,2.2,0.1,4.5,0.1,6.7c0,0.3,0,0.6,0,0.9c-6.7-18.2-13.7-36.2-21-54.2c-0.3-0.7-0.5-1.4-0.8-2.1
		c-0.2-0.4-0.3-0.8-0.5-1.2c-5,1-10,2.2-15,3.3c12.4,25.6,24.1,51.5,35,77.6c0.1,0,0.1,0,0.2,0c0.7-0.1,1.5-0.3,2.2-0.4
		c3.6-0.7,7.2-1.4,10.9-2.1C119.9,112.9,121.1,85.7,122.9,58.5z"/>
	<path class="st0" d="M158.2,134.2c2.4,0.4,5.1,0.5,8,0.2c4.5-0.5,8.2-1.6,11.3-3.4c3.1-1.9,5.3-4.3,6.8-7.5s2.1-6.8,1.9-11.1
		c-1-14.8-1.9-29.6-2.9-44.4c-0.1-1.4-0.3-2.7-0.6-4c-0.6-2.6-1.6-4.8-3-6.8c-1.4-2-3.3-3.6-5.5-4.8c-1-0.6-2.1-1.1-3.3-1.5
		c-3.7-1.3-8.2-1.7-13.3-1.2s-9.4,1.8-12.8,3.8c-3.4,2-5.8,4.7-7.3,7.9c-1.5,3.3-1.9,7-1.3,11.3c2,14.7,4,29.4,6,44
		c0.4,2.8,1.1,5.3,2.2,7.5c0.5,1.1,1.1,2.1,1.8,3c2.1,2.8,4.8,4.7,8.2,6C155.7,133.6,156.9,134,158.2,134.2z M151,66.9
		c0.6-1.4,1.5-2.4,2.9-3.3c1.3-0.8,3-1.3,5-1.5c2-0.2,3.7,0,5.2,0.5c0.6,0.2,1.1,0.5,1.5,0.8c0.8,0.5,1.4,1.1,2,1.9
		c0.6,0.9,1.1,2,1.3,3.3c0.1,0.4,0.1,0.8,0.2,1.2c0,0.1,0,0.3,0,0.4c1.2,14.2,2.4,28.4,3.7,42.6c0.1,1.8,0,3.3-0.6,4.7
		c-0.6,1.3-1.5,2.4-2.7,3.2s-2.8,1.3-4.6,1.5c-0.7,0.1-1.3,0.1-1.8,0c-0.3,0-0.6,0-0.9-0.1c-0.7-0.1-1.4-0.3-2.1-0.5
		c-1.4-0.5-2.5-1.4-3.3-2.6c-0.1-0.2-0.3-0.5-0.4-0.7c-0.6-1.1-1-2.3-1.1-3.8c-1.6-14.3-3.3-28.6-4.9-42.9
		C150.2,69.8,150.4,68.2,151,66.9z"/>
	<path class="st0" d="M223,131.4c4.2,0,7.8-0.8,10.8-2.4c3-1.6,5.4-4,7-7.2c1.7-3.2,2.6-7,2.8-11.5c0-0.8,0-1.5,0.1-2.3
		c0-0.7,0-1.5,0.1-2.2c0-0.2,0-0.4,0-0.6c-4.5-0.1-9-0.2-13.5-0.3c0,1.7,0,3.4,0,5.1c0,1.9-0.3,3.5-0.9,4.8c-0.6,1.3-1.4,2.3-2.5,3
		c-1.1,0.7-2.4,1-3.9,1.1c0,0,0,0,0,0h0c-0.5,0-1,0-1.5-0.1c0,0,0,0,0,0c-0.9-0.2-1.7-0.4-2.3-0.9c-1.1-0.7-1.9-1.7-2.5-3
		c-0.1-0.3-0.3-0.6-0.4-0.9c-0.4-1.1-0.6-2.4-0.6-3.8c-0.2-14.2-0.5-28.3-0.7-42.5c0-1.9,0.3-3.5,0.9-4.8s1.5-2.3,2.7-3
		c1.2-0.7,2.6-1.1,4.2-1.1c1.7,0,3.1,0.3,4.3,1c0.3,0.2,0.5,0.3,0.7,0.5c0.8,0.6,1.5,1.5,1.9,2.5c0.4,1,0.7,2.1,0.8,3.4
		c0,0.1,0,0.1,0,0.2c0,0.2,0,0.3,0,0.5c0,0,0,0,0,0c0,0.2,0,0.5,0,0.7c0,1.7,0,3.4,0,5.1h0.4c0.7,0,1.5,0,2.2,0
		c3.9,0,7.7,0.1,11.6,0.2l0.1-5.1c0-1.1,0-2.2-0.1-3.3c-0.2-3.1-1-5.9-2.2-8.3c-1.3-2.6-3.2-4.7-5.6-6.3c-0.6-0.4-1.3-0.8-2-1.2
		c-3.4-1.7-7.5-2.6-12.3-2.5c-4.8,0-8.9,0.9-12.2,2.7c-3.4,1.8-5.9,4.3-7.5,7.5c-1.7,3.2-2.4,7.1-2.2,11.6
		c0.5,14.1,1.1,28.3,1.6,42.4c0.1,2.8,0.5,5.3,1.2,7.6c0.4,1.4,1,2.6,1.6,3.8c1.7,3.1,4.1,5.5,7.1,7.1c1.4,0.8,3,1.3,4.7,1.7
		C218.8,131.2,220.8,131.4,223,131.4z"/>
	<path class="st0" d="M301.4,135.3c-3-28.1-7-56.2-11.8-84.2c0-0.3-0.1-0.6-0.1-0.9c-3.8-0.4-7.7-0.7-11.5-1
		c-9.7,27.1-18.4,54.4-26.3,81.9c0.2,0,0.4,0,0.6,0c0.8,0.1,1.5,0.1,2.3,0.1c3.4,0.2,6.8,0.4,10.2,0.6c1.1-4.2,2.3-8.5,3.4-12.7
		c0.2-0.7,0.4-1.4,0.6-2.2c0-0.1,0.1-0.3,0.1-0.5c0.2,0,0.4,0,0.5,0c0.7,0,1.5,0.1,2.2,0.2c5,0.4,10.1,0.8,15.1,1.3c0,0,0.1,0,0.1,0
		c0.5,5.3,1,10.5,1.5,15.8c0.7,0.1,1.4,0.2,2.1,0.2c3.6,0.4,7.1,0.8,10.7,1.3C301.3,135.3,301.3,135.3,301.4,135.3z M285.5,106.1
		c-1.5-0.1-2.9-0.3-4.4-0.4c-2.1-0.2-4.1-0.4-6.2-0.5c-0.7-0.1-1.5-0.1-2.2-0.2c-0.2,0-0.3,0-0.5,0c3.1-10.8,6.3-21.7,9.6-32.5
		c0.1,0.5,0.1,0.9,0.2,1.4c1.4,10.7,2.6,21.5,3.8,32.2C285.6,106.1,285.6,106.1,285.5,106.1z"/>
	<path class="st0" d="M323.1,138.5c0.1,0,0.2,0,0.3,0c0.8,0.1,1.5,0.3,2.3,0.4c0.7,0.1,1.4,0.2,2.2,0.4c2.3,0.4,4.5,0.8,6.8,1.2
		c3.8,0.7,7.2,0.7,10.2-0.2c3-0.8,5.5-2.4,7.5-4.7c2-2.3,3.5-5.3,4.3-9c0.3-1.2,0.5-2.5,0.8-3.7c3.1-14.1,6.2-28.3,9.3-42.4
		c0.8-3.7,0.7-7.1-0.3-10.1c-0.8-2.4-2.3-4.5-4.2-6.3c-0.5-0.4-1-0.8-1.5-1.2c-2.8-2-6.4-3.4-10.7-4.3c-3.5-0.7-6.9-1.3-10.4-1.9v0
		c-0.9-0.2-1.9-0.3-2.8-0.5c-0.8-0.1-1.5-0.3-2.2-0.4v0c-3.1-0.5-6.3-1-9.4-1.5c-4.1,27.5-8.1,54.9-12.2,82.4c0,0,0.1,0,0.1,0
		c0.7,0.1,1.5,0.3,2.2,0.4c2,0.3,4,0.6,6,1C321.9,138.4,322.5,138.4,323.1,138.5z M337.1,71.5c0.1-0.7,0.3-1.4,0.4-2.2
		c0-0.2,0.1-0.5,0.1-0.7c0,0,0,0,0,0c0.7,0.1,1.4,0.3,2.2,0.4c2.5,0.4,4.9,0.9,7.4,1.3c1.8,0.3,3.1,1,4.1,1.9
		c0.2,0.2,0.5,0.5,0.6,0.7c1,1.4,1.2,3.1,0.8,5.2c-0.3,1.6-0.6,3.1-0.9,4.7c-2.6,13.5-5.3,27-7.9,40.4c-0.4,2.1-1.3,3.6-2.6,4.5
		c-1.3,0.9-2.9,1.2-4.9,0.8c-0.4-0.1-0.7-0.1-1.1-0.2c-1.8-0.3-3.6-0.6-5.4-1c-0.7-0.1-1.4-0.3-2.2-0.4c0,0-0.1,0-0.1,0
		C330.8,108.6,333.9,90,337.1,71.5z"/>
	<path class="st0" d="M389.2,154.3c4.2,1.2,8,1.5,11.4,0.9c3.5-0.6,6.6-2,9.2-4.4c1.5-1.3,2.8-3,3.8-4.9c0.8-1.4,1.5-3,2-4.7
		c4.6-14.1,9.2-28.2,13.7-42.3c1.3-4.1,1.5-7.8,0.6-11.3c-0.8-3-2.4-5.7-4.7-8c-0.4-0.4-0.8-0.7-1.2-1.1c-3-2.6-7-4.6-12-6
		s-9.5-1.8-13.4-1.2c-3.9,0.6-7.2,2.2-9.8,4.6c-2.4,2.3-4.1,5.3-5.1,8.9c-0.1,0.4-0.2,0.7-0.3,1.1c-3.6,14.4-7.1,28.8-10.7,43.2
		c-1,4.1-1,7.9-0.1,11.3c0.9,3.3,2.8,6.2,5.5,8.6c2.7,2.4,6.2,4.1,10.6,5.4C388.9,154.2,389,154.3,389.2,154.3z M385.8,136.4
		c-0.3-1.4-0.3-3,0.2-4.7c3.8-13.9,7.5-27.8,11.2-41.6c0-0.2,0.1-0.3,0.1-0.4c0.5-1.5,1.2-2.8,2.1-3.7c1-1,2.4-1.7,3.9-1.9
		c1.6-0.3,3.3-0.1,5.3,0.4c1.9,0.5,3.5,1.4,4.7,2.4c0.1,0.1,0.2,0.2,0.3,0.3c1,1,1.7,2.1,2,3.5c0.3,1.4,0.3,3-0.3,4.7
		c-4.1,13.8-8.3,27.5-12.4,41.3c-0.2,0.7-0.5,1.3-0.8,1.9c-0.4,0.9-0.9,1.6-1.5,2.2c-1,1-2.3,1.7-3.7,2c-1.5,0.3-3.1,0.2-4.8-0.3
		c-0.1,0-0.2-0.1-0.4-0.1c0,0,0,0,0,0c-0.1,0-0.1,0-0.2-0.1c-0.1,0-0.2-0.1-0.2-0.1c-1.4-0.5-2.6-1.1-3.5-2
		C386.8,139,386.1,137.8,385.8,136.4z"/>
</g>
</svg>
