<?xml version="1.0" encoding="utf-8"?>
<!-- Generator: Adobe Illustrator 23.0.5, SVG Export Plug-In . SVG Version: 6.00 Build 0)  -->
<svg version="1.1" id="Capa_1" xmlns="http://www.w3.org/2000/svg" xmlns:xlink="http://www.w3.org/1999/xlink" x="0px" y="0px"
	 viewBox="0 0 446 164" style="enable-background:new 0 0 446 164;" xml:space="preserve">
<style type="text/css">
	.st0{fill:none;}
	.st1{fill:#851D24;}
	.st2{fill:#E6CC79;}
	.st3{fill:#568203;}
</style>
<g>
	<g>
		<path class="st0" d="M408.8,92.1c0.5-1.5,0.5-2.9,0.2-4.1c0,0,0-0.1,0-0.1c-0.1,0-0.2-0.1-0.3-0.1c-1.9-0.6-3.7-0.7-5.2-0.4
			c-1.6,0.3-2.9,0.9-3.9,1.9s-1.8,2.4-2.3,4.1c-3.7,13.8-7.4,27.6-11.2,41.4c-0.3,1-0.4,2-0.4,2.9c0.1,0,0.2,0.1,0.4,0.1
			c1.8,0.5,3.4,0.6,4.8,0.3c1.5-0.3,2.7-0.9,3.7-2c0.6-0.6,1.1-1.4,1.5-2.2c0.1-0.3,0.2-0.5,0.3-0.8L408.8,92.1z"/>
		<path class="st0" d="M59.1,119.7c-2.1-4.2-4.3-8.5-6.4-12.7c0.3,4.7,0.6,9.4,1,14.2C55.5,120.7,57.3,120.2,59.1,119.7z"/>
		<path class="st0" d="M346.5,73.6c-2.8-0.5-5.6-1-8.4-1.5c-2.9,17.3-5.9,34.6-8.8,51.9c0.4,0.1,0.7,0.1,1.1,0.2
			c2,0.4,3.6,0.1,4.9-0.9s2.1-2.5,2.6-4.5c2.6-13.5,5.3-27,7.9-40.4l0.6-3C346.4,74.7,346.5,74.2,346.5,73.6z"/>
		<path class="st0" d="M275.1,101.2c1.5,0.1,2.9,0.3,4.4,0.4c-0.4-3.7-0.8-7.5-1.3-11.2C277.2,94,276.2,97.6,275.1,101.2z"/>
		<path class="st0" d="M160.6,65.6c-2,0.2-3.6,0.7-5,1.5s-2.3,1.9-2.9,3.2c-0.6,1.4-0.8,2.9-0.6,4.7c1.6,14.2,3.3,28.3,4.9,42.5
			c0.6,0,1.2,0,1.8,0c1.8-0.2,3.3-0.7,4.6-1.5s2.1-1.9,2.7-3.2c0.6-1.3,0.8-2.9,0.6-4.7c-1.2-14.2-2.4-28.4-3.7-42.6
			C162.4,65.5,161.5,65.5,160.6,65.6z"/>
		<path class="st1" d="M50.6,74.3c12.9,22.3,25.2,45.2,36.7,68.2l0.6,1.2l-1.3,0.3c-3.2,0.8-6.5,1.5-9.7,2.3c0.9,2,1.9,3.9,2.8,5.9
			c4.2-1.1,9.5-2.1,13.7-3.1c-12.7-25.4-26.3-50.4-40.8-75C52.3,74.2,50.9,74.3,50.6,74.3z"/>
		<path class="st1" d="M53.7,121.2c-0.3-4.7-0.7-9.4-1-14.2c-1.7-3.4-3.4-6.7-5.2-10c0.5,8.5,1.1,17,1.7,25.4
			C50.7,122.1,52.2,121.6,53.7,121.2z"/>
		<path class="st1" d="M50.4,137.5c0.4,5,0.9,9.9,1.3,14.8l0.1,0.9l-0.9,0.3c-2.4,0.7-4.8,1.5-7.2,2.2c0.2,2.3,0.3,4.6,0.5,6.9
			c4.2-1.4,8.3-2.7,12.5-3.9c-0.5-5.2-1-10.5-1.4-15.7c4.4-1.3,8.9-2.6,13.3-3.8c-0.9-2-1.9-3.9-2.9-5.9
			C60.7,134.6,55.5,136,50.4,137.5z"/>
		<path class="st1" d="M116.6,137l0,0.9l-0.9,0.2c-3.3,0.6-6.5,1.2-9.8,1.9c0.8,1.9,1.6,3.8,2.4,5.7c4.4-0.9,8.8-1.8,13.2-2.5
			c0.4-28.1,1.6-56.3,3.5-84.5c-1.8,0.3-3.5,0.6-5.3,0.8C118.1,85.2,117,111.3,116.6,137z"/>
		<path class="st1" d="M102.3,100.1c-4.5-11.7-9.1-23.3-13.8-34.9c-0.7,0.1-1.4,0.3-2.1,0.4c5.5,13.7,10.9,27.6,16.1,41.4
			C102.4,104.7,102.3,102.4,102.3,100.1z"/>
		<path class="st1" d="M184.8,71.5c-0.3-4.2-1.4-7.8-3.5-10.7c-0.9-1.2-1.9-2.2-3-3.1c1,2.3,1.6,4.9,1.7,7.7l2.8,44.1
			c0.3,4.4-0.4,8.3-2,11.6c-1.6,3.3-4,5.9-7.2,7.9c-3.2,1.9-7,3.1-11.7,3.6c-1.3,0.1-2.5,0.2-3.6,0.2c-3.1,0-5.9-0.5-8.5-1.4
			c-0.6-0.2-1.1-0.4-1.6-0.7c2.1,2.6,4.7,4.5,8,5.7c3.3,1.2,7.2,1.6,11.6,1.1s8.1-1.6,11.2-3.4c3-1.8,5.3-4.3,6.8-7.4
			c1.5-3.1,2.1-6.8,1.8-11C186.7,100.9,185.8,86.2,184.8,71.5z"/>
		<path class="st1" d="M159.6,61.1c-1-0.3-2.1-0.5-3.3-0.5c-0.5,0-0.9,0-1.4,0.1c-1.8,0.2-3.3,0.6-4.5,1.4c-1.1,0.7-2,1.6-2.4,2.7
			c-0.5,1.2-0.7,2.5-0.5,4.1l4.9,42.6c0.2,1.6,0.6,2.9,1.3,3.9c0.7,1,1.5,1.7,2.6,2.1c0.3,0,0.6,0,0.9,0.1
			c-1.6-14.2-3.3-28.4-4.9-42.5c-0.2-1.8,0-3.3,0.6-4.7c0.6-1.3,1.5-2.4,2.9-3.2c1.3-0.8,3-1.3,5-1.5c0.9-0.1,1.7-0.1,2.5,0
			c0-0.1,0-0.3,0-0.4c0-0.4-0.1-0.8-0.2-1.2c-0.1-0.3-0.3-0.5-0.4-0.7C161.8,62.3,160.9,61.6,159.6,61.1z"/>
		<path class="st1" d="M241.3,65.5l-0.2,6.2l-1.1,0c-2.7-0.1-5.5-0.1-8.2-0.2c0,1.6,0,3.2,0,4.9c4.7,0,9.4,0.1,14,0.3
			c0-1.7,0.1-3.4,0.1-5.1c0.1-4.4-0.6-8.3-2.3-11.5c-1.1-2.1-2.5-3.8-4.2-5.3C240.8,57.8,241.4,61.4,241.3,65.5z"/>
		<path class="st1" d="M224.1,60.9c-0.5-1.1-1.2-1.9-2.2-2.5c-1-0.6-2.2-0.9-3.7-0.9c0,0,0,0-0.1,0c-1.4,0-2.6,0.3-3.6,0.9
			c-1,0.6-1.7,1.4-2.2,2.6c-0.6,1.2-0.8,2.6-0.8,4.3l0.7,42.2c0,1.7,0.3,3.1,0.9,4.3c0.5,1.1,1.2,1.9,2.1,2.5
			c0.1,0.1,0.2,0.1,0.3,0.1c0.5,0.1,1,0.1,1.5,0.1c0,0,0,0,0,0c0-0.3-0.1-0.6-0.1-1c-0.2-14-0.5-28.1-0.7-42.2
			c0-1.9,0.3-3.4,0.9-4.8c0.6-1.3,1.5-2.3,2.7-3c1.1-0.7,2.6-1.1,4.2-1.1c0.2,0,0.4,0,0.6,0c0-0.1,0-0.3,0-0.4
			C224.4,61.6,224.3,61.2,224.1,60.9z"/>
		<path class="st1" d="M237.2,119.4c-1.7,3.3-4.2,5.9-7.5,7.6c-3.1,1.7-6.9,2.5-11.3,2.5c-0.1,0-0.1,0-0.1,0
			c-3.9,0-7.3-0.7-10.3-2.1c1.5,1.9,3.3,3.5,5.5,4.6c3,1.6,6.6,2.4,10.7,2.4c4.1,0,7.7-0.8,10.7-2.4c3-1.6,5.3-4,7-7.1
			s2.6-6.9,2.7-11.4c0-1.7,0.1-3.4,0.1-5.1c-1.6,0-3.3-0.1-4.9-0.1C239.7,112.6,238.8,116.3,237.2,119.4z"/>
		<path class="st1" d="M276.5,75.1c-2.6,8.5-5.1,17-7.5,25.5c2.1,0.2,4.1,0.3,6.2,0.5c1-3.6,2.1-7.2,3.1-10.8
			C277.7,85.3,277.1,80.2,276.5,75.1z"/>
		<path class="st1" d="M286.6,53.5c4.4,26.1,8.1,52.6,10.9,78.7l0.1,1.4l-1.4-0.2c-2.5-0.3-5-0.6-7.5-0.9c0.1,1.5,0.3,2.9,0.4,4.3
			c4.3,0.5,8.6,1,12.9,1.5c-3-28.2-7-56.4-11.9-84.6C289.1,53.7,287.9,53.6,286.6,53.5z"/>
		<path class="st1" d="M265,114.8c-1.3,4.8-2.6,9.6-3.9,14.4l-0.2,0.9l-0.9-0.1c-1.9-0.1-3.9-0.2-5.8-0.4c-0.4,1.5-0.9,3-1.3,4.6
			c4.3,0.2,8.6,0.4,13,0.7c1.4-5.1,2.7-10.1,4.1-15.2c3.9,0.3,7.7,0.6,11.6,0.9c-0.1-1.5-0.3-3-0.4-4.4
			C275.7,115.6,270.3,115.2,265,114.8z"/>
		<path class="st1" d="M366.8,73.9c-0.9-2.6-2.5-4.8-4.8-6.7c0,0.1,0.1,0.2,0.1,0.3c1.1,3.1,1.2,6.7,0.4,10.6l-10,45.8
			c-0.8,3.8-2.3,7-4.5,9.5s-4.9,4.2-8,5c-1.7,0.5-3.5,0.7-5.5,0.7c-1.6,0-3.4-0.2-5.2-0.5c-3.9-0.7-7.9-1.4-11.9-2.1
			c-1.1-0.2-2.2-0.3-3.3-0.5c-0.2,1.3-0.4,2.6-0.6,4c3.4,0.5,6.8,1,10.1,1.6c3.8,0.6,7.6,1.3,11.4,2c3.8,0.7,7.2,0.7,10.1-0.2
			c3-0.8,5.5-2.4,7.5-4.7c2-2.3,3.5-5.3,4.3-9c3.3-15.3,6.7-30.5,10-45.8C367.9,80.2,367.8,76.9,366.8,73.9z"/>
		<path class="st1" d="M346.5,73.6c0-1-0.3-1.9-0.8-2.6c-0.8-1.1-2.1-1.9-4-2.2c-2.8-0.5-5.6-1-8.4-1.5l-9.4,55.7
			c1.8,0.3,3.6,0.6,5.4,1c2.9-17.3,5.9-34.6,8.8-51.9C340.9,72.6,343.7,73.1,346.5,73.6z"/>
		<path class="st1" d="M429.9,90.9c-0.8-3.2-2.6-6-5.2-8.5c0.3,0.7,0.5,1.3,0.7,2c1,3.6,0.7,7.6-0.6,11.9l-13.6,42
			c-1.4,4.2-3.4,7.6-6.1,10c-2.7,2.5-5.9,4-9.7,4.6c-1.2,0.2-2.5,0.3-3.7,0.3c-2.6,0-5.5-0.4-8.5-1.3c-2.7-0.8-5-1.7-7.1-2.9
			c0.7,0.9,1.5,1.8,2.4,2.6c2.7,2.4,6.2,4.1,10.5,5.4c4.3,1.2,8.2,1.6,11.8,1c3.5-0.6,6.6-2,9.1-4.4s4.5-5.5,5.8-9.5
			c4.5-14,9.1-28,13.6-42C430.6,98.2,430.8,94.4,429.9,90.9z"/>
		<path class="st1" d="M386.2,134.7c3.7-13.8,7.4-27.6,11.2-41.4c0.5-1.7,1.2-3.1,2.3-4.1c1-1,2.3-1.7,3.9-1.9
			c1.6-0.3,3.3-0.1,5.2,0.4c0.1,0,0.2,0.1,0.3,0.1c-0.3-1.2-0.9-2.1-1.9-3c-1.1-0.9-2.5-1.7-4.3-2.2c-1.2-0.3-2.3-0.5-3.4-0.5
			c-0.5,0-0.9,0-1.4,0.1c-1.3,0.2-2.4,0.8-3.3,1.6c-0.9,0.9-1.6,2.1-2,3.6l-11.1,41.4c-0.4,1.5-0.5,2.9-0.2,4.2
			c0.3,1.2,0.9,2.2,1.8,3.1c0.6,0.6,1.4,1.1,2.3,1.5c0.1,0,0.1,0,0.2,0.1C385.8,136.7,385.9,135.8,386.2,134.7z"/>
		<path class="st0" d="M1.5,130.4c0.1-0.1,0.1-0.3,0.2-0.4C1.6,130.2,1.6,130.3,1.5,130.4z"/>
		<path class="st0" d="M1.2,131.5c0-0.1,0.1-0.3,0.1-0.4C1.3,131.2,1.2,131.3,1.2,131.5z"/>
		<path class="st0" d="M4.8,126.6c-0.2,0.1-0.4,0.2-0.5,0.3c-0.1,0-0.1,0.1-0.2,0.1c-0.1,0.1-0.2,0.2-0.3,0.3c0,0-0.1,0.1-0.1,0.1
			C4,127.1,4.4,126.8,4.8,126.6z"/>
		<path class="st0" d="M2.1,129.3c0.1-0.1,0.2-0.3,0.2-0.4C2.2,129.1,2.2,129.2,2.1,129.3z"/>
		<path class="st2" d="M2.1,129.3c-0.1,0.2-0.3,0.5-0.4,0.7c-0.1,0.1-0.1,0.3-0.2,0.4c-0.1,0.2-0.1,0.4-0.2,0.6
			c0,0.1-0.1,0.3-0.1,0.4c-1.1,4.8,2.7,10.2,8.2,9.7c6.7-0.4,9.7-9,4.8-13.5c-2.5-2.5-6.5-2.8-9.4-1.1c-0.4,0.2-0.8,0.5-1.1,0.8
			c-0.3,0.2-0.5,0.4-0.7,0.7c-0.2,0.3-0.4,0.5-0.6,0.8C2.2,129.1,2.2,129.2,2.1,129.3z"/>
		<path class="st2" d="M2.4,128.9c0.2-0.3,0.4-0.5,0.6-0.8C2.7,128.4,2.5,128.6,2.4,128.9z"/>
		<g>
			<path class="st3" d="M17.1,131.1c0.2,0.6,0.3,1.2,0.4,1.9c0.5,4.6-3.4,8.9-8,9c-2.3,0.1-4.2-0.7-5.7-2c1.3,2.6,4.1,4.5,7.2,4.5
				c4.5,0,8.1-3.6,8.1-8.1C19.1,134.4,18.4,132.5,17.1,131.1z"/>
		</g>
		<path class="st2" d="M427.5,130.3c-0.1,0.2-0.2,0.4-0.2,0.6c0,0.1-0.1,0.3-0.1,0.4c-1.2,4.8,2.5,10.2,8,9.8
			c4.1-0.2,7.5-3.8,7.4-7.9c0-5.7-5.8-9-10.5-7.3c0,0-0.1,0-0.1,0c-0.3,0.1-0.5,0.2-0.8,0.4c-0.2,0.1-0.3,0.2-0.5,0.3
			c-0.1,0.1-0.2,0.1-0.3,0.2c-0.2,0.1-0.4,0.3-0.6,0.5c-0.3,0.2-0.5,0.4-0.8,0.7c-0.2,0.2-0.4,0.5-0.6,0.7c0,0,0,0,0,0.1
			c-0.2,0.2-0.3,0.5-0.4,0.7c-0.1,0.1-0.1,0.3-0.2,0.4C427.6,130,427.6,130.2,427.5,130.3z"/>
		<path class="st2" d="M429,128c-0.1,0.1-0.2,0.3-0.3,0.4c0,0-0.1,0.1-0.1,0.1c0,0.1-0.1,0.1-0.1,0.2
			C428.6,128.5,428.8,128.2,429,128z"/>
		<path class="st3" d="M443.1,131.1c0.2,0.6,0.3,1.3,0.4,2.1c0.4,4.6-3.6,8.9-8.2,8.8c-2.2,0-4.1-0.8-5.5-2c1.3,2.6,4,4.5,7.2,4.5
			c4.5,0,8.1-3.6,8.1-8.1C445,134.4,444.3,132.5,443.1,131.1z"/>
		<path class="st3" d="M73.9,144.2c3.4-0.9,6.9-1.7,10.3-2.5C71.9,117.2,58.8,93,44.9,69.2c-0.4-0.6-0.8-1.3-1.1-2
			c-0.2-0.4-0.4-0.8-0.7-1.1c-3.7,1-7.5,2.1-11.2,3.1c0.4,28.8,1.6,57.5,3.9,85.9c0.4-0.1,0.7-0.2,1.1-0.4c0.7-0.2,1.4-0.5,2.1-0.7
			c3.1-1,6.2-2,9.4-2.9c-0.4-4.3-0.8-8.5-1.2-12.8c-0.1-0.8-0.1-1.5-0.2-2.2c0-0.3-0.1-0.5-0.1-0.8c0.4-0.1,0.7-0.2,1.1-0.3
			c0.7-0.2,1.4-0.4,2.2-0.6c4.8-1.4,9.5-2.7,14.3-4c0.1,0.3,0.2,0.5,0.4,0.7c0.3,0.7,0.7,1.3,1,2c1,2,1.9,3.9,2.9,5.9
			c0.9,1.9,1.8,3.8,2.7,5.6c0.1,0,0.2,0,0.3-0.1C72.4,144.5,73.1,144.3,73.9,144.2z M47.1,123.1c-0.4,0.1-0.7,0.2-1.1,0.3
			c-0.9-11.2-1.7-22.5-2.3-33.8c0.5,0.9,0.9,1.8,1.4,2.7c0.8,1.6,1.6,3.1,2.5,4.7c1.7,3.3,3.5,6.7,5.2,10c2.2,4.2,4.3,8.4,6.4,12.7
			c-1.8,0.5-3.7,1-5.5,1.5c-1.5,0.4-3,0.8-4.4,1.3C48.5,122.7,47.8,122.9,47.1,123.1z"/>
		<path class="st3" d="M102.7,137.6c3.6-0.7,7.2-1.4,10.9-2.1c0.4-27.1,1.5-54.4,3.3-81.6c0.1-0.8,0.1-1.5,0.1-2.2
			c0-0.4,0.1-0.8,0.1-1.2C112,51.3,107,52.1,102,53c-0.1,15.7,0,31.4,0.3,47.1c0,2.3,0.1,4.6,0.2,7c0.1,2.2,0.1,4.5,0.1,6.7
			c0,0.3,0,0.6,0,0.9c-6.7-18.1-13.7-36.2-21-54.2c-0.3-0.7-0.6-1.4-0.8-2.1c-0.2-0.4-0.3-0.8-0.5-1.2c-5,1.1-10,2.2-15,3.3
			c12.4,25.6,24.1,51.5,35,77.6c0.1,0,0.2,0,0.2,0C101.2,137.9,101.9,137.8,102.7,137.6z"/>
		<path class="st3" d="M148.5,128.7c1.2,0.4,2.4,0.7,3.7,1c2.4,0.4,5.1,0.5,8,0.2c4.5-0.5,8.2-1.6,11.3-3.4c3.1-1.9,5.3-4.3,6.8-7.5
			s2.1-6.8,1.9-11.1c-0.9-14.8-1.9-29.6-2.9-44.4c-0.1-1.4-0.3-2.7-0.6-4c-0.6-2.6-1.6-4.8-3-6.8c-1.4-2-3.3-3.6-5.5-4.8
			c-1-0.6-2.1-1.1-3.3-1.5c-3.7-1.3-8.2-1.7-13.3-1.2c-5.1,0.5-9.4,1.8-12.8,3.8c-3.4,2-5.9,4.6-7.3,7.9c-1.5,3.3-1.9,7-1.3,11.3
			c2,14.7,4,29.4,6,44.1c0.4,2.8,1.1,5.4,2.2,7.5c0.5,1.1,1.1,2.1,1.8,3C142.4,125.5,145.1,127.5,148.5,128.7z M150.9,114.4
			c-0.1-0.2-0.3-0.5-0.4-0.7c-0.6-1.1-1-2.3-1.1-3.8c-1.6-14.3-3.3-28.6-4.9-42.9c-0.2-1.8,0-3.4,0.6-4.7c0.6-1.4,1.6-2.4,2.9-3.3
			c1.4-0.8,3-1.3,5-1.5c2-0.2,3.7,0,5.2,0.5c0.6,0.2,1.1,0.5,1.5,0.8c0.8,0.5,1.4,1.1,2,1.9c0.6,0.9,1.1,2.1,1.3,3.3
			c0.1,0.4,0.1,0.8,0.2,1.2c0,0.1,0,0.3,0,0.4c1.2,14.2,2.4,28.4,3.7,42.6c0.1,1.8-0.1,3.4-0.6,4.7s-1.5,2.4-2.7,3.2
			c-1.2,0.8-2.8,1.3-4.6,1.5c-0.6,0.1-1.3,0.1-1.8,0c-0.3,0-0.6,0-0.9-0.1c-0.7-0.1-1.4-0.3-2.1-0.5
			C152.8,116.5,151.7,115.6,150.9,114.4z"/>
		<path class="st3" d="M206.2,124.5c1.4,0.8,3,1.3,4.7,1.7c1.9,0.4,3.9,0.7,6.1,0.6c4.2,0,7.8-0.8,10.8-2.4s5.4-4,7-7.2
			c1.6-3.2,2.6-7,2.8-11.5c0-0.8,0-1.5,0.1-2.3c0-0.7,0-1.5,0.1-2.2c0-0.2,0-0.4,0-0.6c-4.5-0.1-9-0.2-13.4-0.3c0,1.7,0,3.4,0,5.1
			c0,1.9-0.3,3.5-0.9,4.8c-0.6,1.3-1.4,2.3-2.4,3c-1.1,0.7-2.4,1-3.9,1.1c0,0,0,0,0,0c-0.5,0-1,0-1.5-0.1c-0.9-0.1-1.7-0.4-2.4-0.9
			c-1.1-0.7-1.9-1.7-2.5-3c-0.1-0.3-0.3-0.6-0.4-0.9c-0.4-1.1-0.6-2.4-0.6-3.8c-0.2-14.1-0.5-28.3-0.7-42.4c0-1.9,0.3-3.5,0.9-4.8
			s1.5-2.3,2.7-3s2.6-1.1,4.2-1.1c1.7,0,3.1,0.3,4.3,1c0.3,0.1,0.5,0.3,0.7,0.5c0.8,0.6,1.5,1.5,1.9,2.5c0.5,1,0.7,2.2,0.8,3.6
			c0,0.1,0,0.3,0,0.4c0,0.2,0,0.5,0,0.7c0,1.7,0,3.4,0,5.1c0.1,0,0.2,0,0.4,0c0.7,0,1.5,0,2.2,0c3.9,0,7.7,0.1,11.6,0.2
			c0-1.7,0.1-3.4,0.1-5.1c0-1.1,0-2.2-0.1-3.3c-0.2-3.1-1-5.9-2.2-8.3c-1.3-2.6-3.2-4.7-5.6-6.3c-0.6-0.4-1.3-0.8-2-1.2
			c-3.4-1.7-7.5-2.6-12.3-2.6c-4.8,0-8.9,0.9-12.2,2.7c-3.4,1.8-5.9,4.3-7.5,7.5c-1.7,3.2-2.4,7.1-2.2,11.6
			c0.5,14.1,1.1,28.3,1.6,42.4c0.1,2.8,0.5,5.3,1.2,7.6c0.4,1.4,1,2.6,1.6,3.8C200.8,120.5,203.2,122.9,206.2,124.5z"/>
		<path class="st3" d="M248.6,126.7c3.4,0.2,6.8,0.4,10.2,0.6c1.1-4.2,2.3-8.5,3.4-12.7c0.2-0.7,0.4-1.4,0.6-2.2
			c0-0.1,0.1-0.3,0.1-0.5c0.2,0,0.4,0,0.5,0c0.7,0,1.5,0.1,2.2,0.2c5,0.4,10.1,0.8,15.1,1.3c0,0,0.1,0,0.1,0
			c0.5,5.3,1,10.5,1.5,15.8c0.7,0.1,1.4,0.2,2.1,0.2c3.6,0.4,7.1,0.8,10.7,1.3c0.1,0,0.1,0,0.2,0c-3-28.1-7-56.2-11.8-84.2
			c0-0.3-0.1-0.6-0.1-0.9c-3.8-0.4-7.7-0.7-11.5-1c-9.7,27.1-18.4,54.4-26.3,81.9c0.2,0,0.4,0,0.6,0
			C247.1,126.6,247.8,126.7,248.6,126.7z M266.2,100.4c3.1-10.8,6.3-21.7,9.6-32.4c0.1,0.5,0.1,0.9,0.2,1.4
			c1.4,10.7,2.6,21.5,3.8,32.2c0,0-0.1,0-0.1,0c-1.5-0.1-2.9-0.3-4.4-0.4c-2.1-0.2-4.1-0.4-6.2-0.5c-0.7-0.1-1.5-0.1-2.2-0.2
			C266.5,100.5,266.3,100.4,266.2,100.4z"/>
		<path class="st3" d="M309.2,132.8c2,0.3,4,0.6,6,1c0.6,0.1,1.2,0.2,1.9,0.3c0.1,0,0.2,0,0.3,0c0.8,0.1,1.5,0.3,2.3,0.4
			c0.7,0.1,1.4,0.2,2.2,0.4c2.3,0.4,4.5,0.8,6.8,1.2c3.8,0.7,7.2,0.7,10.2-0.2c3-0.8,5.5-2.4,7.5-4.7c2-2.3,3.5-5.3,4.3-9
			c0.3-1.2,0.5-2.5,0.8-3.7c3.1-14.1,6.2-28.3,9.3-42.4c0.8-3.7,0.7-7.1-0.3-10.1c-0.8-2.4-2.3-4.5-4.2-6.3c-0.5-0.4-1-0.9-1.5-1.2
			c-2.8-2-6.4-3.4-10.7-4.3c-3.5-0.6-6.9-1.3-10.4-1.9v0c-0.9-0.2-1.9-0.3-2.8-0.5c-0.8-0.1-1.5-0.3-2.2-0.4v0
			c-3.1-0.5-6.3-1-9.4-1.5c-4.1,27.5-8.1,54.9-12.2,82.4c0,0,0.1,0,0.1,0C307.8,132.6,308.5,132.7,309.2,132.8z M321.6,122.7
			c3.2-18.6,6.3-37.1,9.5-55.7c0.1-0.7,0.3-1.4,0.4-2.2c0-0.2,0.1-0.4,0.1-0.7c0,0,0,0,0,0c0.7,0.1,1.4,0.3,2.2,0.4
			c2.5,0.4,4.9,0.9,7.4,1.3c1.8,0.3,3.1,1,4.1,1.9c0.2,0.2,0.5,0.5,0.6,0.7c1,1.4,1.2,3.1,0.8,5.2c-0.3,1.6-0.6,3.1-0.9,4.7
			c-2.6,13.5-5.3,27-7.9,40.4c-0.4,2.1-1.3,3.6-2.6,4.5c-1.3,0.9-2.9,1.2-4.9,0.9c-0.4-0.1-0.7-0.1-1.1-0.2c-1.8-0.3-3.6-0.6-5.4-1
			C323.1,122.9,322.4,122.8,321.6,122.7C321.7,122.7,321.6,122.7,321.6,122.7z"/>
		<path class="st3" d="M366.9,124.5c-1,4.1-1,7.9-0.1,11.3s2.8,6.2,5.5,8.6c2.7,2.4,6.2,4.1,10.6,5.4c0.1,0,0.3,0.1,0.4,0.1
			c4.2,1.1,8,1.5,11.4,0.9c3.5-0.6,6.6-2,9.2-4.4c1.5-1.4,2.8-3,3.8-4.9c0.8-1.4,1.5-3,2-4.7c4.6-14.1,9.2-28.2,13.7-42.3
			c1.3-4.1,1.5-7.8,0.6-11.3c-0.8-3-2.4-5.7-4.7-8.1c-0.4-0.4-0.8-0.7-1.2-1.1c-3-2.6-7-4.6-12-6c-5-1.4-9.5-1.8-13.4-1.2
			c-3.9,0.6-7.2,2.2-9.8,4.6c-2.4,2.3-4.1,5.3-5.1,8.9c-0.1,0.4-0.2,0.7-0.3,1.1C374,95.7,370.4,110.1,366.9,124.5z M380,127.1
			c3.8-13.9,7.5-27.8,11.2-41.6c0-0.2,0.1-0.3,0.1-0.4c0.5-1.5,1.2-2.8,2.1-3.7c1-1,2.4-1.7,3.9-1.9s3.3-0.1,5.3,0.4
			c1.9,0.6,3.5,1.4,4.7,2.4c0.1,0.1,0.2,0.2,0.3,0.3c1,1,1.7,2.1,2,3.5c0.3,1.4,0.3,3-0.3,4.7c-4.1,13.8-8.3,27.5-12.4,41.3
			c-0.2,0.7-0.5,1.3-0.8,1.9c-0.4,0.9-0.9,1.6-1.5,2.2c-1,1-2.3,1.7-3.7,2c-1.5,0.3-3.1,0.2-4.8-0.3c-0.1,0-0.2-0.1-0.4-0.1
			c-0.1,0-0.1,0-0.2-0.1c-1.5-0.5-2.7-1.2-3.7-2.1c-1.1-1-1.8-2.2-2.1-3.6C379.5,130.5,379.5,128.9,380,127.1z"/>
	</g>
</g>
<g>
	<path class="st0" d="M199.9,26.7c0.6,0.3,1.2,0.4,2,0.4s1.5-0.1,2-0.4s1-0.7,1.3-1.3c0.3-0.6,0.4-1.3,0.4-2.1V8.5
		c0-0.8-0.1-1.5-0.4-2.1c-0.3-0.6-0.7-1-1.3-1.3s-1.2-0.4-2-0.4s-1.5,0.1-2,0.4s-1,0.7-1.3,1.3c-0.3,0.6-0.4,1.3-0.4,2.1v14.9
		c0,0.8,0.1,1.5,0.4,2.1C198.9,26,199.3,26.4,199.9,26.7z"/>
	<polygon class="st1" points="176.5,17.7 183,17.7 183,30 186.2,30 186.2,1.8 183,1.8 183,14.6 176.5,14.6 176.5,1.8 173.2,1.8 
		173.2,30 176.5,30 	"/>
	<path class="st1" d="M198.1,29.5c1.1,0.6,2.3,0.8,3.8,0.8s2.7-0.3,3.8-0.8c1.1-0.6,1.9-1.4,2.4-2.4c0.6-1.1,0.8-2.4,0.8-3.9V8.6
		c0-1.5-0.3-2.8-0.8-3.9s-1.4-1.9-2.4-2.4c-1.1-0.6-2.3-0.8-3.8-0.8s-2.7,0.3-3.8,0.8c-1.1,0.6-1.9,1.4-2.4,2.4
		c-0.6,1.1-0.8,2.4-0.8,3.9v14.6c0,1.5,0.3,2.8,0.8,3.9C196.3,28.1,197.1,28.9,198.1,29.5z M198.1,8.5c0-0.8,0.1-1.5,0.4-2.1
		c0.3-0.6,0.7-1,1.3-1.3s1.2-0.4,2-0.4s1.5,0.1,2,0.4s1,0.7,1.3,1.3c0.3,0.6,0.4,1.3,0.4,2.1v14.9c0,0.8-0.1,1.5-0.4,2.1
		c-0.3,0.6-0.7,1-1.3,1.3s-1.2,0.4-2,0.4s-1.5-0.1-2-0.4s-1-0.7-1.3-1.3c-0.3-0.6-0.4-1.3-0.4-2.1V8.5z"/>
	<path class="st1" d="M227.4,29.6c1-0.5,1.7-1.2,2.2-2.2c0.5-1,0.7-2.2,0.7-3.7V1.8H227v22.1c0,1.1-0.3,1.9-0.8,2.5
		c-0.5,0.6-1.3,0.9-2.4,0.9c-1,0-1.8-0.3-2.4-0.9c-0.5-0.6-0.8-1.4-0.8-2.5V1.8h-3.3v21.9c0,1.5,0.2,2.7,0.7,3.7s1.2,1.7,2.2,2.2
		s2.1,0.8,3.5,0.8C225.2,30.3,226.4,30.1,227.4,29.6z"/>
	<path class="st1" d="M241.6,29.6c1,0.5,2.3,0.8,3.8,0.8c1.5,0,2.7-0.3,3.7-0.8s1.8-1.2,2.3-2.2c0.5-1,0.8-2.2,0.8-3.6v-2.2
		c0-1.3-0.2-2.4-0.7-3.3s-1.1-1.6-1.8-2.1c-0.7-0.5-1.6-1-2.7-1.6c-0.1,0-0.1-0.1-0.2-0.1s-0.1-0.1-0.2-0.1c-0.1,0-0.2-0.1-0.3-0.1
		s-0.2-0.1-0.3-0.1c-1-0.4-1.8-0.9-2.3-1.2s-1-0.8-1.4-1.3s-0.6-1.2-0.6-2V8c0-1.1,0.3-2,0.9-2.6s1.5-0.9,2.7-0.9
		c1.1,0,2,0.3,2.6,0.9s0.9,1.5,0.9,2.7v1.4h3.2V8.1c0-1.4-0.3-2.6-0.8-3.6c-0.5-1-1.3-1.7-2.2-2.2c-1-0.5-2.2-0.8-3.6-0.8
		c-1.5,0-2.8,0.3-3.8,0.7s-1.8,1.2-2.3,2.2c-0.5,1-0.8,2.2-0.8,3.6v1.5c0,1.4,0.3,2.5,0.8,3.4s1.2,1.6,1.9,2.1s1.8,1.1,3,1.7
		l0.3,0.1c0,0,0.1,0,0.1,0s0.1,0,0.1,0c0.9,0.4,1.7,0.9,2.3,1.2c0.6,0.4,1,0.8,1.4,1.4c0.4,0.6,0.6,1.2,0.6,2v2.1
		c0,1.2-0.3,2.1-0.9,2.7c-0.6,0.6-1.5,0.9-2.7,0.9c-1.2,0-2.1-0.3-2.7-0.9c-0.6-0.6-0.9-1.5-0.9-2.7v-1.3l-3.2,0v1.4
		c0,1.4,0.3,2.7,0.8,3.6C239.8,28.4,240.6,29.1,241.6,29.6z"/>
	<polygon class="st1" points="263.9,30 272.8,30 272.8,27 263.9,27 263.9,17.5 271.8,17.5 271.8,14.5 263.9,14.5 263.9,4.8 
		272.8,4.8 272.8,1.8 263.9,1.8 262.6,1.8 260.7,1.8 260.7,30 262.6,30 	"/>
</g>
</svg>
